/* XPM */
static char * background_xpm[] = {
"50 50 4 1",
" 	c #58A080",
".	c #308868",
"+	c #80B098",
"@	c #68A890",
"                                                  ",
"                                                  ",
"                                                  ",
"                            .                     ",
"                         .  .  .                  ",
"             .            .   .              .    ",
"          .  .  .                         .  .  . ",
"           .   .                           .   .  ",
"                                                  ",
"  +                               +               ",
"  +  +                         +  +  +            ",
"+   +                           +   +             ",
"                                                  ",
"                                                  ",
"                                                  ",
"                                                  ",
"                                                  ",
"                 @        .                      @",
"              @  @  @  .  .  .                @  @",
"               @   @    .   .                  @  ",
"                                                  ",
"   @                               @              ",
"@  @  @                         @  @  @           ",
" @   @                           @   @            ",
"                                                  ",
"                                                  ",
"                                                  ",
"                                                  ",
"                                                  ",
"   .                               .              ",
".  .  .                         .  .  .           ",
" .   .                           .   .            ",
"                                                  ",
"                                                  ",
"                                                  ",
"                            .                     ",
"                         .  .  .                  ",
"             .            .   .              .    ",
"          .  .  .                         .  .  . ",
"           .   .                           .   .  ",
"                                                  ",
"  +                               +               ",
"  +  +                         +  +  +            ",
"+   +                           +   +             ",
"                                                  ",
"                                                  ",
"                                                  ",
"                                                  ",
"                                                  ",
"                 @        .                      @"};
