/* XPM */
static char * exit_xpm[] = {
"50 50 11 1",
" 	c #58A080",
".	c #308868",
"+	c #80B098",
"@	c #686850",
"#	c #68A890",
"$	c #484848",
"%	c #A8A858",
"&	c #E8E8A0",
"*	c #000000",
"=	c #C8C868",
"-	c #788048",
"                                                  ",
"                                                  ",
"                                                  ",
"                            .                     ",
"                         .  .  .                  ",
"             .            .   .              .    ",
"          .  .  .                         .  .  . ",
"           .   .                           .   .  ",
"                                                  ",
"  +                               +               ",
"  +  +                         +  +  +            ",
"+   +                           +   +             ",
"                                                  ",
"                                                  ",
"                                                  ",
"                                                  ",
"                     @@@@@@@                      ",
"                 # @@@@@@@@@@@@                  #",
"              #  #@@@@$$$$$$@@@@              #  #",
"               #  @$$$$$$$$$$$@@               #  ",
"                 @$$$%&%$$$$$$$@@                 ",
"   #             @$$$&&&$***$$$$@  #              ",
"#  #  #          @**$===&$****$$@  #  #           ",
" #   #           @**$=-$=&$*****$#   #            ",
"                 @**$=-*$=&$*****                 ",
"                 @**-=-**$=&-$$**                 ",
"                 @*$==$***$=$&&-*                 ",
"                  $$=-$%***$$&=%*                 ",
"                  $$--$-%**$-=-$                  ",
"   .               $--$*-%*$=%-$   .              ",
".  .  .             *-***-%*%%$ .  .  .           ",
" .   .               *********   .   .            ",
"                                                  ",
"                                                  ",
"                                                  ",
"                            .                     ",
"                         .  .  .                  ",
"             .            .   .              .    ",
"          .  .  .                         .  .  . ",
"           .   .                           .   .  ",
"                                                  ",
"  +                               +               ",
"  +  +                         +  +  +            ",
"+   +                           +   +             ",
"                                                  ",
"                                                  ",
"                                                  ",
"                                                  ",
"                                                  ",
"                 #        .                      #"};
