/* XPM */
static char * exit_xpm[] = {
"16 16 9 1",
" 	c #70C8A0",
".	c #808070",
"+	c #686850",
"@	c #484848",
"#	c #E8D878",
"$	c #D8B038",
"%	c #907048",
"&	c #000000",
"*	c #B89038",
"   .+@##+++++.  ",
" .++@#$@@@@@++. ",
" ++@@$@@@@@@@++.",
".+@@@%$@@@@@@%%+",
"+@@&@$*#&&@@%##+",
"+@&&@$&*#&&&#$@+",
"+&&&@$&&%#&%#&@+",
"+&&&@*$&&*$@#&&+",
"+&&&@**$&&*@$&&+",
"+&&&@*&*$&&@$&&+",
"+&&&&+&&*$&@$&&+",
"+&&&&+*&&%$@$&&+",
"+@&&&&++&&%@$&&+",
" +@&&&&++&&@+&@ ",
"  ++@@&&++&@&@  ",
"   .+++++++++   "};
