/* XPM */
static char * player_xpm[] = {
"30 30 15 1",
" 	c None",
".	c #882840",
"+	c #000000",
"@	c #F06848",
"#	c #C03838",
"$	c #E8E8F8",
"%	c #503018",
"&	c #885028",
"*	c #B8B0D0",
"=	c #784040",
"-	c #D8A078",
";	c #384040",
">	c #F8D0B8",
",	c #C89800",
"'	c #406888",
"                              ",
"                              ",
"                              ",
"                              ",
"           .......            ",
"         +.@@@@@@@.+          ",
"        +#@@@@@@@@@#+         ",
"        .@@@@@@@@@@@.         ",
"       +#@@@@@@@@@@@#+        ",
"       +##@@@@@@@@@##+        ",
"       +####@@@@@####+        ",
"       ..####$$$####..        ",
"      %%&*##*###*##*&%%       ",
"      =-+.**$$$$$**.+-=       ",
"      =-+%+*******+%+-=       ",
"       +%&%;+++++;%&%+        ",
"        +&-*+===+*-&+         ",
"         =->>>>>>>-=          ",
"         +=->>->>-=+          ",
"        +;,+=---=+,;+         ",
"       =;;,#*===*#,;;=        ",
"      =>-;&##*;*##&;->=       ",
"      =>>++=#*;*#=++>>=       ",
"       ==+'+++++++'+==        ",
"         +;;'';'';;+          ",
"         +##+++++##+          ",
"          ++     ++           ",
"                              ",
"                              ",
"                              "};
