/* XPM */
static char * player_xpm[] = {
"50 50 18 1",
" 	c #58A080",
".	c #308868",
"+	c #80B098",
"@	c #882840",
"#	c #000000",
"$	c #F06848",
"%	c #C03838",
"&	c #68A890",
"*	c #E8E8F8",
"=	c #503018",
"-	c #885028",
";	c #B8B0D0",
">	c #784040",
",	c #D8A078",
"'	c #384040",
")	c #F8D0B8",
"!	c #C89800",
"~	c #406888",
"                                                  ",
"                                                  ",
"                                                  ",
"                            .                     ",
"                         .  .  .                  ",
"             .            .   .              .    ",
"          .  .  .                         .  .  . ",
"           .   .                           .   .  ",
"                                                  ",
"  +                               +               ",
"  +  +                         +  +  +            ",
"+   +                           +   +             ",
"                                                  ",
"                     @@@@@@@                      ",
"                   #@$$$$$$$@#                    ",
"                  #%$$$$$$$$$%#                   ",
"                  @$$$$$$$$$$$@                   ",
"                 #%$$$$$$$$$$$%#                 &",
"              &  #%%$$$$$$$$$%%#              &  &",
"               & #%%%%$$$$$%%%%#               &  ",
"                 @@%%%%***%%%%@@                  ",
"   &            ==-;%%;%%%;%%;-==  &              ",
"&  &  &         >,#@;;*****;;@#,>  &  &           ",
" &   &          >,#=#;;;;;;;#=#,>&   &            ",
"                 #=-='#####'=-=#                  ",
"                  #-,;#>>>#;,-#                   ",
"                   >,))))))),>                    ",
"                   #>,)),)),>#                    ",
"                  #'!#>,,,>#!'#                   ",
"   .             >''!%;>>>;%!''>   .              ",
".  .  .         >),'-%%;';%%-',)>  .  .           ",
" .   .          >))##>%;';%>##))>.   .            ",
"                 >>#~#######~#>>                  ",
"                   #''~~'~~''#                    ",
"                   #%%#####%%#                    ",
"                    ##     ##                     ",
"                         .  .  .                  ",
"             .            .   .              .    ",
"          .  .  .                         .  .  . ",
"           .   .                           .   .  ",
"                                                  ",
"  +                               +               ",
"  +  +                         +  +  +            ",
"+   +                           +   +             ",
"                                                  ",
"                                                  ",
"                                                  ",
"                                                  ",
"                                                  ",
"                 &        .                      &"};
