/* XPM */
static char * player_xpm[] = {
"16 16 4 1",
" 	c #70C8A0",
".	c #303030",
"+	c #F9EDF9",
"@	c #EDBA97",
"                ",
"                ",
"      ....      ",
" .....++++..... ",
" ..+..@++@..+.. ",
"  ..++.@@.++..  ",
"   .+++..+++.   ",
"  .++.++++.++.  ",
"  .++++++++++.  ",
" .++@++..++@++. ",
".+@++++++++++@+.",
" ..++++++++++.. ",
"  .@++++++++@.  ",
"   .@++++++@.   ",
"    .@@..@@.    ",
"     ..  ..     "};
