/* XPM */
static char * pokeball_xpm[] = {
"50 50 109 2",
"  	c #58A080",
". 	c #308868",
"+ 	c #80B098",
"@ 	c #68A890",
"# 	c #35644F",
"$ 	c #000000",
"% 	c #264B3B",
"& 	c #BE2D22",
"* 	c #E70000",
"= 	c #D21F17",
"- 	c #123F2E",
"; 	c #F70000",
"> 	c #FF0000",
", 	c #FA0000",
"' 	c #D70000",
") 	c #7A0000",
"! 	c #D00000",
"~ 	c #F24C89",
"{ 	c #FA5598",
"] 	c #FD335F",
"^ 	c #F90000",
"/ 	c #DD0000",
"( 	c #6D0000",
"_ 	c #356550",
": 	c #529778",
"< 	c #539779",
"[ 	c #386953",
"} 	c #CB0000",
"| 	c #FA5394",
"1 	c #FCC3DA",
"2 	c #FCD4E7",
"3 	c #FB94B8",
"4 	c #FD3461",
"5 	c #870000",
"6 	c #6A0000",
"7 	c #4C6354",
"8 	c #4F9173",
"9 	c #F76ABB",
"0 	c #FDEBF3",
"a 	c #FFFFFF",
"b 	c #FAB4D7",
"c 	c #FC447B",
"d 	c #3E0000",
"e 	c #5E9882",
"f 	c #559A7B",
"g 	c #64725A",
"h 	c #A90000",
"i 	c #630000",
"j 	c #49725A",
"k 	c #519476",
"l 	c #7C0000",
"m 	c #FB4C89",
"n 	c #447F65",
"o 	c #6F0000",
"p 	c #FC0000",
"q 	c #DE0000",
"r 	c #7D0000",
"s 	c #370000",
"t 	c #F00000",
"u 	c #F10000",
"v 	c #ED0000",
"w 	c #A30000",
"x 	c #AA0000",
"y 	c #8B898A",
"z 	c #E2E2E2",
"A 	c #DADADA",
"B 	c #888687",
"C 	c #540000",
"D 	c #4F9174",
"E 	c #D1D1D1",
"F 	c #CCCCCC",
"G 	c #ABA9AA",
"H 	c #515050",
"I 	c #E7E7E7",
"J 	c #6F6F6F",
"K 	c #9C9B9C",
"L 	c #E8E8E8",
"M 	c #989798",
"N 	c #2A7B5E",
"O 	c #569D7E",
"P 	c #7C7C7C",
"Q 	c #C0BEBF",
"R 	c #F4F4F4",
"S 	c #ECECEC",
"T 	c #9F9E9E",
"U 	c #6D6D6D",
"V 	c #696869",
"W 	c #A4A3A3",
"X 	c #504F4F",
"Y 	c #4F876D",
"Z 	c #716F70",
"` 	c #C4C3C3",
" .	c #F7F7F7",
"..	c #E0E0E0",
"+.	c #CBCBCB",
"@.	c #D2D1D2",
"#.	c #69726E",
"$.	c #A0A0A0",
"%.	c #C4C4C4",
"&.	c #C3C2C3",
"*.	c #706F70",
"=.	c #40765E",
"-.	c #376853",
";.	c #727C78",
">.	c #7C817F",
",.	c #1C5842",
"'.	c #468166",
").	c #1C5843",
"!.	c #40775E",
"                                                                                                    ",
"                                                                                                    ",
"                                                                                                    ",
"                                                        .                                           ",
"                                                  .     .     .                                     ",
"                          .                         .       .                             .         ",
"                    .     .     .                                                   .     .     .   ",
"                      .       .                                                       .       .     ",
"                                                                                                    ",
"    +                                                               +                               ",
"    +     +                                                   +     +     +                         ",
"+       +                                                       +       +                           ",
"                                                                                                    ",
"                                                                                                    ",
"                                                                                                    ",
"                                                                                                    ",
"                                                                                                    ",
"                                  @                 .                                             @ ",
"                            @     @     @   # $ $ $ $ %   .                                 @     @ ",
"                              @       @ # % & * * * * = - %                                   @     ",
"                                      % = * ; > > > > , ' ) %                                       ",
"      @                             # ! ~ { ] > > > > > ^ / ( _ :     @                             ",
"@     @     @                   < [ } | 1 2 3 4 > > > > > > 5 6 7 <   @     @                       ",
"  @       @                     8 $ > 9 0 a b c > > > > > > 5 5 d e       @                         ",
"                              f g h > | 1 2 3 4 > > > > > > 5 5 i j k                               ",
"                              8 l > > > m { ] > > > > > ^ / 5 5 5 d n                               ",
"                              8 o * > > > > > > > > > p q 5 5 5 r s n                               ",
"                              8 $ $ * > > > t * * u > v 5 5 5 5 d $ n                               ",
"                              8 $ $ $ > > > w $ $ x > v 5 5 5 5 d $ n                               ",
"      .                       8 $ $ $ $ $ $ y z A B C 5 5 5 $ $ $ 8   .                             ",
".     .     .                   D $ a $ $ $ E a a F $ $ $ $ a G H 8   .     .                       ",
"  .       .                     8 $ a I I J K L z M $ $ $ $ a G H N       .                         ",
"                                O D P Q R S T U V W I I I I Q X Y O                                 ",
"                                    n Z `  ...+.+.z a  .@.@.Z n f                                   ",
"                                      n #.$.%.@.@.@.@.&.*.*.n                                       ",
"                                        =.-.;.B B B B >.,.-.                                        ",
"                                            '.[ [ ).[ !..     .                                     ",
"                          .                         .       .                             .         ",
"                    .     .     .                                                   .     .     .   ",
"                      .       .                                                       .       .     ",
"                                                                                                    ",
"    +                                                               +                               ",
"    +     +                                                   +     +     +                         ",
"+       +                                                       +       +                           ",
"                                                                                                    ",
"                                                                                                    ",
"                                                                                                    ",
"                                                                                                    ",
"                                                                                                    ",
"                                  @                 .                                             @ "};
