/* XPM */
static char * wall_xpm[] = {
"50 50 13 1",
" 	c #58A080",
".	c #287020",
"+	c #68A848",
"@	c #90C868",
"#	c #308868",
"$	c #284000",
"%	c #80B098",
"&	c #108050",
"*	c #68A890",
"=	c #285810",
"-	c #302820",
";	c #685040",
">	c #483038",
"                                                  ",
"                     ..+..+..                     ",
"                   ..@@.++.@@..                   ",
"                  .@+@+@@@@+@+@.                  ",
"                 .+@@@@@@@@@@@@+.                 ",
"             #   @@+@@@@@@@@@@+@@            #    ",
"          #  #  #.@+@@@@@@@@@@+@.         #  #  # ",
"           #...@.+@@@@@@@@@@@@@@+.@...     #   #  ",
"          .$$@@.@++@@+@@@@@@+@@++@.@@$$.          ",
"  %       .@+@.@++@@@@++@@++@@@@++@.@+@.          ",
"  %  %  ..++.+.@++@@@@@@@@@@@@@@++@.+.++..        ",
"%   %  .@@+@@@+.++++@@@@@@@@@@++++.+@@@+@@.       ",
"       +++@@@@++++++@@@@++@@@@++++++@@@@+++       ",
"      .$@@@@@@..+.++++@++++@++++.+..@@@@@@$.      ",
"     .@@@@@@@++..+.++++++++++++.+..++@@@@@@@.     ",
"   &.$@@@++@+++++..+.++++++++.+..+++++@++@@@$.&   ",
"   &$+@@+.+@@+@@.+$..++.++.++..$+.@@+@@+.+@@+$&   ",
"   .$++++++@@@@@@..$$.$.++.$.$$..@@@@@@++++++$.  *",
"   .$+++@@@@@@@@@@+..$.$++$.$..+@@@@@@@@@@+++$.  *",
"   .$+@+@@@@@@@@@@+...++..++...+@@@@@@@@@@+@+$.*  ",
"   ..$$@@@@@@@@@@@++++@@++@@++++@@@@@@@@@@@$$..   ",
"   .$+.+@@@@@@@@@@@@++@@@@@@++@@@@@@@@@@@@+.+$.   ",
"* &$+.+.@@@@@++@@+@@@@@@@@@@@@@@+@@++@@@@@.+.+$&  ",
" * $++..+@@@++++.+@@@+@@@@@@+@@@+.++++@@@+..++$   ",
"  $+@+.+.+++@@++.@@@@@++@@++@@@@@.++@@+++.+.+@+$  ",
"  $++@+...++@@+..@+@@@@@@@@@@@@+@..+@@++...+@++$  ",
"  ..@+@+....++.$..+@@@@@@@@@@@@+..$.++....+@+@..  ",
"  .++@+++......$$..++@@@++@@@++..$$......+++@++.  ",
"  $+++++.+...$$$$....++++++++....$$$$...+.+++++$  ",
"  $..++.++..$$.$$$$.....++.....$$$$.$$..++.++..$  ",
"#  .....+.$.$+....$$..........$$....+$.$.+.....   ",
" # $.....+$.++++.+$...+....+...$+.++++.$+.....$   ",
"    $$$$....+++++++..+++..+++..+++++++....$$$$    ",
"     $$$...+.++++++..++....++..++++++.+...$$$     ",
"      $$$$+.+++++++..$+....+$..+++++++.+$$$$      ",
"        $$$++.+.++..$$......$$..++.+.++$$$        ",
"       &.$$.$......$.$$.$$.$$.$......$.$$.&       ",
"     &....$$.$.$..$$$$$$$$$$$$$$..$.$.$$....&#    ",
"    &....==$$..$$$$$$---$$---$$$$$$..$$==....&  # ",
"   &....====$$$$=$$$$-;----;-$$$$=$$$$====....&#  ",
"   ....=======$$$$$$$-;>>>>;-$$$$$$$=======....   ",
"  &...=======$$$$$$$$-;>>>>;-$$$$$$$$=======...&  ",
"  &...=======$$$$$$$$$->>>>-$$$$$$$$$=======...&  ",
"% &...=======$$$$$$$$$$----$$$$$$$$$$=======...&  ",
"   ...========$$$$$$$$$$$$$$$$$$$$$$========...   ",
"   &...=========$$$$$$$$$$$$$$$$$$=========...&   ",
"    ....==========$$$$$$$$$$$$$$==========....    ",
"     .....===========$$$$$$$$===========.....     ",
"      &.....==========================.....&      ",
"        &......====================......&       *"};
