/* XPM */
static char * wall_xpm[] = {
"16 16 7 1",
" 	c #70C8A0",
".	c #204010",
"+	c #388800",
"@	c #80C830",
"#	c #505020",
"$	c #A08020",
"%	c #784040",
"           ...  ",
"         ..++@. ",
"  ...   .+++@@@.",
" .@@+.. ..++@@@.",
".@@+++....+++@+.",
".@+@+....+.+++. ",
" .+++.......+++.",
".+++.....##.... ",
".....##.##.     ",
" .....#.#.      ",
"   .. .$#.      ",
"      .$#.      ",
"    +..#$#.+    ",
"   +.%$#$$#.+   ",
"   +..%$#$..+   ",
"    +......+    "};
